<svg xmlns="http://www.w3.org/2000/svg" viewBox="0 0 52 36" fill="#fff"><path d="M9.81 9.003c.26 0 .472-.11.601-.311v.191c0 .508-.346.689-.671.689-.212 0-.37-.11-.485-.19-.071-.05-.128-.089-.177-.089-.103 0-.164.064-.164.17 0 .157.399.416.854.416.483 0 .969-.316.969-1.021V6.909c0-.132-.06-.207-.164-.207-.104 0-.164.075-.164.207v.096a.785.785 0 0 0-.609-.304c-.652 0-.949.596-.949 1.15.002.7.378 1.152.959 1.152zm0-2.02c.379 0 .605.334.605.656v.425c0 .316-.231.656-.605.656-.446 0-.605-.468-.605-.869 0-.4.159-.868.605-.868zm1.575 2.02c.104 0 .164-.076.164-.208V7.714c0-.494.331-.624.473-.656.152-.035.214-.087.214-.178 0-.082-.056-.178-.213-.178-.18 0-.362.141-.473.363v-.156c0-.132-.06-.207-.164-.207s-.164.075-.164.207v1.886c-.001.132.059.208.163.208zm1.948 0c.506 0 .846-.31.846-.771V6.909c0-.132-.06-.207-.164-.207-.104 0-.164.075-.164.207v1.247c0 .364-.184.564-.518.564s-.518-.2-.518-.564V6.909c0-.132-.06-.207-.164-.207s-.164.075-.164.207v1.323c0 .461.34.771.846.771zm1.492.876c.104 0 .164-.076.164-.208v-.984c.173.218.361.316.609.316.652 0 .949-.597.949-1.151 0-.699-.376-1.15-.957-1.15a.695.695 0 0 0-.601.31v-.103c0-.132-.06-.207-.164-.207s-.164.075-.164.207v2.762c.001.132.06.208.164.208zm.765-2.896c.446 0 .605.468.605.869 0 .401-.158.869-.605.869-.447 0-.605-.468-.605-.869 0-.401.159-.869.605-.869zm2.175 2.02c.581 0 .957-.452.957-1.151 0-.554-.299-1.15-.957-1.15-.657 0-.957.596-.957 1.15 0 .699.375 1.151.957 1.151zm0-2.02c.446 0 .605.468.605.869 0 .401-.158.869-.605.869-.446 0-.605-.468-.605-.869 0-.401.158-.869.605-.869zm18.977 7.79c-2.654.006-4.869 1.922-5.319 4.52-.45 2.601.935 4.542 4.011 4.533 4.026-.012 5.25-3.424 5.441-4.516.384-2.205-.52-4.548-4.133-4.537zm1.955 4.544c-.17.907-.992 3.41-3.23 3.379-1.787-.029-2.191-1.783-1.878-3.412.248-1.311 1.268-3.403 3.161-3.377 1.983.028 2.243 1.879 1.947 3.41zm-6.742-3.284c.086-.398-.426-.682-.426-.682a4.934 4.934 0 0 0-2.416-.606c-3.184.007-5.304 2.31-5.677 4.472-.294 1.684.225 4.375 4.459 4.487a8.856 8.856 0 0 0 2.289-.259c.211-.085.591-.332.669-1.013.004-.157-.107-.187-.213-.18a6.84 6.84 0 0 1-2.171.342c-1.716.006-2.885-1.343-2.517-3.465.22-1.267.942-3.393 3.318-3.404.61 0 1.182.17 1.708.437v-.003c-.001 0 .751.394.977-.126zM20 14.867l-.966.002a5.997 5.997 0 0 1-.407.013c-1.99 0-2.489 1.011-2.611 1.426l-1.04 6.003c-.121 1.376.904 1.325.904 1.325l1.209-.002.637-3.651c.205 0 .729.249.999.849l.543 1.664c.49 1.114 1.066 1.229 2.255 1.226.067-.001.14-.002.215-.005.33-.033.98-.185.98-.865-.012-.003-1.21-.447-1.971-3.092.758-.219 2.282-.848 2.552-2.392.301-1.741-1.449-2.506-3.299-2.501zm1.048 2.427c-.114.663-.578 1.775-2.375 1.778l-.793.002.566-3.221.826-.002c1.301-.002 1.935.526 1.776 1.443zm24.864-2.427l-.966.002a5.975 5.975 0 0 1-.407.013c-1.991 0-2.49 1.011-2.611 1.426l-1.04 6.003c-.121 1.376.909 1.321.909 1.321l-.004.004 1.209-.002.636-3.651c.204 0 .729.249.999.849l.543 1.664c.49 1.114 1.066 1.229 2.255 1.226.067-.001.14-.002.215-.005.33-.033.979-.185.98-.865-.011-.003-1.21-.447-1.971-3.092.757-.219 2.281-.848 2.552-2.392.3-1.741-1.45-2.506-3.299-2.501zm1.047 2.427c-.113.663-.577 1.775-2.375 1.778l-.793.002.566-3.221.826-.002c1.301-.002 1.935.526 1.776 1.443z"/><path d="M47.334 7.222a13.386 13.386 0 0 0-1.995-.915C39.898 1.968 31.308-.308 22.302.805 8.457 2.512-1.195 11.596.749 21.092c1.944 9.497 14.744 15.812 28.593 14.103 10.649-1.314 18.854-7 21.192-13.875l-.031.096c2.613-6.484-.428-12.659-3.169-14.194zM1.333 20.937C-.569 11.813 8.863 3.088 22.391 1.446c8.106-.985 15.845.8 21.155 4.352-1.719-.367-3.46-.422-5.355-.465-8.775-.189-19.275 3.641-26.928 9.581l-1.036-3.246c-.988 0-1.742 1.243-2.093 1.749l-5.998 9.997a12.15 12.15 0 0 1-.803-2.477zm27.932 13.546C17.063 35.964 5.692 31.172 2.188 23.525l1.155-.002 5.299-8.973.612 2.033c-2.379 2.114-4.391 4.444-5.865 6.921h.394c1.45-1.707 3.504-3.481 6.002-5.156l1.081 3.592c.677 1.769 1.89 1.865 2.41 1.818.344 0 .993-.392 1.012-1.001-.55-.282-.807-.915-.807-.915.093.303-.717-2.228-1.552-4.841 8.196-4.83 20.009-8.364 31.141-6.137.595.119 5.346.755 7.248 4.117l.003.011c1.901 9.125-7.528 17.847-21.056 19.491z"/></svg>